<svg version="1.1" id="Layer_1" xmlns="http://www.w3.org/2000/svg" xmlns:xlink="http://www.w3.org/1999/xlink" x="0px" y="0px"
	 width="100%" viewBox="0 0 1024 1024" enable-background="new 0 0 1024 1024" xml:space="preserve">
<!-- Background removed, starting with first element -->
<path fill="#A5A5FF" opacity="1.000000" stroke="none" 
	d="
M312.037201,356.043121 
	C312.037201,356.043121 312.051147,356.152374 312.617706,355.997650 
	C312.853271,355.690033 313.088867,355.382446 313.821075,354.852753 
	C314.222992,354.268311 314.624908,353.683868 315.475647,352.689850 
	C315.707794,352.139709 315.939972,351.589569 316.070404,351.044861 
	C316.070404,351.044861 316.101471,351.141876 316.709808,350.722870 
	C317.467682,348.056793 318.843536,345.399017 318.879333,342.723267 
	C319.060791,329.159729 318.894440,315.591553 319.159790,301.525299 
	C319.791199,301.092529 320.422607,300.659760 321.755341,300.102051 
	C323.547760,299.096283 325.340179,298.090515 327.040710,297.053864 
	C327.040710,297.053864 327.060913,297.160461 327.548950,297.022430 
	C329.029449,296.647797 330.509949,296.273163 332.458527,295.780090 
	C334.224152,295.294983 335.989777,294.809875 338.176727,294.175659 
	C339.703735,293.695862 341.230743,293.216064 342.663025,292.757294 
	C343.361877,292.621887 344.060730,292.486481 344.665863,292.366760 
	C344.665863,292.366760 344.701691,292.485260 345.224976,292.311676 
	C345.839294,292.176147 346.453644,292.040649 347.000000,291.919250 
	C355.057190,288.908142 363.067230,286.236053 370.724487,282.733673 
	C377.683258,279.536957 384.602722,276.118958 391.318848,272.475952 
	C393.064270,271.456543 395.013550,270.517090 395.823761,268.995422 
	C396.078979,268.514313 396.334198,268.033203 396.589417,267.552094 
	C397.156372,266.448273 397.723328,265.344452 398.678741,263.615997 
	C402.012024,258.099518 405.430939,252.519043 408.639160,246.892242 
	C409.099457,246.037415 409.559723,245.182571 409.960083,244.409134 
	C410.200684,244.155228 410.441284,243.901306 410.681885,243.647385 
	C410.681885,243.647385 410.708374,243.730835 411.195770,243.202286 
	C413.339417,238.880661 415.399841,234.587631 417.677521,230.248184 
	C418.159851,229.348801 418.642181,228.449417 419.124512,227.550034 
	C419.351288,227.134079 419.578064,226.718124 419.804840,226.302170 
	C419.804840,226.302170 419.824310,226.396378 420.284912,225.612946 
	C422.019226,222.417847 423.753540,219.222733 425.487823,216.027618 
	C430.254364,208.066772 434.888824,200.264023 440.035217,192.386169 
	C446.080414,183.153442 452.562225,174.090759 458.899841,164.910721 
	C462.262878,159.887756 465.508972,154.780609 468.861816,149.745010 
	C469.369141,148.953476 469.876465,148.161942 470.383789,147.370407 
	C470.820435,146.677628 471.257111,145.984848 471.683136,145.307037 
	C472.001953,144.806473 472.320801,144.305908 473.025482,142.866592 
	C473.552979,142.020004 474.080475,141.173416 475.004761,139.561295 
	C475.651855,138.487793 476.298950,137.414291 477.376190,135.637299 
	C478.049805,134.512848 478.723419,133.388397 479.397034,132.263947 
	C481.091797,129.383591 482.786560,126.503235 484.480743,123.625595 
	C485.209961,122.455940 485.939178,121.286285 486.668396,120.116631 
	C489.161133,116.183517 491.653870,112.250404 494.146606,108.317291 
	C494.613281,107.577667 495.079956,106.838043 495.546631,106.098419 
	C495.991272,105.389580 496.435913,104.680740 496.877106,103.978645 
	C497.338745,103.244797 497.800385,102.510941 498.262024,101.777092 
	C499.229095,100.241776 500.196167,98.706451 501.161896,97.176598 
	C503.045166,93.915611 504.937805,90.658920 506.753265,87.330696 
	C508.121948,84.752625 509.490631,82.174553 510.859314,79.596481 
	C511.493164,78.368080 512.127014,77.139679 512.753845,75.924927 
	C513.019531,75.419777 513.285217,74.914627 513.548340,74.415497 
	C513.807373,73.927315 514.066406,73.439133 514.325439,72.950951 
	C514.325439,72.950951 514.342651,73.019600 514.718567,72.314903 
	C515.220276,71.432472 515.721985,70.550041 516.716980,68.780426 
	C518.246948,65.958916 519.721436,63.172962 521.251465,60.351452 
	C521.787720,59.383858 522.323975,58.416264 522.851318,57.462044 
	C523.120850,56.984604 523.390381,56.507156 523.659912,56.029713 
	C523.659912,56.029713 523.688171,56.155968 524.139099,55.337585 
	C525.145386,53.449696 526.151672,51.561806 527.157959,49.673920 
	C529.044434,46.211224 530.930908,42.748524 532.817383,39.285828 
	C534.703857,35.823128 536.590332,32.360432 538.476807,28.897736 
	C540.363281,25.435036 542.249756,21.972336 544.136108,18.510784 
	C544.668884,17.549789 545.201660,16.588797 545.728699,15.639988 
	C546.006775,15.126373 546.284851,14.612758 546.562927,14.099144 
	C546.562927,14.099144 546.596497,14.198097 547.000000,13.480316 
	C547.000000,13.480316 547.562927,12.099144 547.000000,12.480316 
	C547.000000,12.480316 547.000000,13.000000 547.000000,13.000000 
	C547.000000,13.000000 547.000000,12.000000 547.000000,12.000000 
	C547.000000,12.000000 548.000000,11.000000 549.000000,11.000000 
	C549.000000,11.000000 549.000000,11.000000 549.000000,11.000000 
	C549.000000,11.000000 549.000000,11.000000 549.000000,11.000000 
	C549.000000,11.000000 550.000000,11.000000 551.000000,11.000000 
	C551.000000,11.000000 551.000000,11.000000 551.000000,11.000000 
	C551.000000,11.000000 551.000000,11.000000 551.000000,11.000000 
	C551.000000,11.000000 552.000000,11.000000 553.000000,11.000000 
	C553.000000,11.000000 553.000000,11.000000 553.000000,11.000000 
	C553.000000,11.000000 553.000000,11.000000 553.000000,11.000000 
	C553.000000,11.000000 554.000000,10.000000 554.000000,10.000000 
	C555.000000,10.000000 554.000000,10.000000 554.000000,10.000000 
	C556.000000,9.000000 556.000000,9.000000 556.000000,9.000000 
	C557.000000,8.000000 557.000000,8.000000 557.000000,8.000000 
	C557.000000,8.000000 558.000000,8.000000 558.000000,8.000000 
	C558.000000,8.000000 559.000000,7.000000 560.000000,7.000000 
	C561.000000,7.000000 561.000000,7.000000 561.000000,7.000000 
	C562.000000,7.000000 562.000000,7.000000 562.000000,7.000000 
	C562.000000,7.000000 563.000000,7.000000 564.000000,7.000000 
	C564.000000,7.000000 565.000000,7.000000 566.000000,7.000000 
	C566.000000,7.000000 567.000000,7.000000 568.000000,7.000000 
	C569.000000,7.000000 570.000000,7.000000 571.000000,7.000000 
	C572.000000,7.000000 573.000000,7.000000 574.000000,7.000000 
	C600.062866,6.503818 626.163696,5.867966 652.250244,6.079102 
	C734.070313,6.701199 815.850037,7.886599 897.682251,8.456043 
	C906.175293,8.523445 914.667114,8.453602 923.166748,8.484119 
	C925.493713,8.492245 927.820679,8.500370 930.147644,8.508495 
	C944.693787,8.673656 959.243225,9.007141 973.789185,9.173096 
	C976.113159,9.198639 978.437073,9.224182 980.761047,9.249724 
	C985.409058,9.300809 990.057068,9.351894 994.704956,9.402968 
	C997.028870,9.428454 999.352844,9.453939 1001.676758,9.479425 
	C1001.676758,9.479425 1001.676758,9.479425 1001.676758,9.479425 
	C1001.676758,9.479425 1001.676758,9.479425 1001.676758,9.479425 
	C1001.676758,9.479425 1001.676758,9.479425 1001.676758,9.479425 
	C1002.834961,9.524761 1003.993164,9.570096 1005.151367,9.615431 
	C1006.309509,9.660766 1007.467712,9.706101 1008.625854,9.751436 
	C1009.000000,9.773551 1009.374146,9.795667 1009.748291,9.817782 
	C1010.122437,9.839898 1010.496582,9.862013 1010.870728,9.884128 
	C1011.244873,9.906243 1011.619019,9.928358 1011.993164,9.950474 
	C1012.367310,9.972589 1012.741455,9.994704 1013.115601,10.016819 
	C1013.489746,10.038935 1013.863892,10.061050 1014.238037,10.083165 
	C1014.612183,10.105281 1014.986328,10.127396 1015.360474,10.149511 
	C1015.360474,10.149511 1015.360474,10.149511 1015.000000,10.149511 
	C1015.000000,10.149511 1015.750000,10.224756 1016.500000,10.299999 
	C1016.500000,10.299999 1017.000000,10.399998 1017.000000,10.399998 
	C1017.000000,10.399998 1017.750000,10.424999 1018.500000,10.450000 
	C1019.000000,10.466667 1019.500000,10.483333 1020.000000,10.500000 
	C1020.000000,93.160645 1020.000000,175.821289 1020.000000,259.000000 
	C1020.000000,354.666656 1020.000000,450.333313 1020.000000,546.000000 
	C1020.000000,592.166687 1020.000000,638.333313 1020.000000,684.500000 
	C1015.500000,684.750000 1011.000000,685.000000 1006.500000,685.250000 
	C1006.500000,685.250000 1000.000000,685.500000 1000.000000,685.500000 
	C979.833313,685.750000 959.666687,686.000000 939.500000,686.250000 
	C939.500000,686.250000 938.750000,686.206848 938.000000,686.163696 
	C937.250000,686.120544 936.500000,686.077393 935.750000,686.034241 
	C935.000000,685.991089 934.250000,685.947937 933.500000,685.904785 
	C932.750000,685.861633 932.000000,685.818481 931.250000,685.775330 
	C927.500000,685.600830 923.750000,685.426331 920.000000,685.251831 
	C919.250000,685.208679 918.500000,685.165527 917.750000,685.122375 
	C917.000000,685.079224 916.250000,685.036072 915.500000,684.992920 
	C914.750000,684.949768 914.000000,684.906616 913.250000,684.863464 
	C912.500000,684.820313 911.750000,684.777161 911.000000,684.734009 
	C910.250000,684.690857 909.500000,684.647705 908.750000,684.604553 
	C908.000000,684.561401 907.250000,684.518250 906.500000,684.475098 
	C905.750000,684.431946 905.000000,684.388794 904.250000,684.345642 
	C903.500000,684.302490 902.750000,684.259338 902.000000,684.216187 
	C901.250000,684.173035 900.500000,684.129883 899.750000,684.086731 
	C899.000000,684.043579 898.250000,684.000427 897.500000,683.957275 
	C893.500000,683.783142 889.500000,683.609009 885.500000,683.434875 
	C884.750000,683.391724 884.000000,683.348572 883.250000,683.305420 
	C882.500000,683.262268 881.750000,683.219116 881.000000,683.175964 
	C876.750000,682.958557 872.500000,682.741150 868.250000,682.523743 
	C867.500000,682.480591 866.750000,682.437439 866.000000,682.394287 
	C865.250000,682.351135 864.500000,682.307983 863.750000,682.264832 
	C860.250000,682.091064 856.750000,681.917297 853.250000,681.743530 
	C851.500000,681.656982 849.750000,681.570435 848.000000,681.483887 
	C847.500000,681.450775 847.000000,681.417664 846.500000,681.384552 
	C845.000000,681.298584 843.500000,681.212585 842.000000,681.126587 
	C839.000000,680.954590 836.000000,680.782593 833.000000,680.610596 
	C832.250000,680.567444 831.500000,680.524292 830.750000,680.481140 
	C828.000000,680.351685 825.250000,680.222229 822.500000,680.092773 
	C821.750000,680.049622 821.000000,680.006470 820.250000,679.963318 
	C815.750000,679.789673 811.250000,679.616028 806.750000,679.442383 
	C803.000000,679.312927 799.250000,679.183472 795.500000,679.054016 
	C794.750000,679.010864 794.000000,678.967712 793.250000,678.924561 
	C791.500000,678.838013 789.750000,678.751465 788.000000,678.664917 
	C786.250000,678.578369 784.500000,678.491821 782.750000,678.405273 
	C782.000000,678.362122 781.250000,678.318970 780.500000,678.275818 
	C780.000000,678.242706 779.500000,678.209595 779.000000,678.176483 
	C777.750000,678.108398 776.500000,678.040314 775.250000,677.972229 
	C772.750000,677.836060 770.250000,677.699890 767.750000,677.563721 
	C767.000000,677.520569 766.250000,677.477417 765.500000,677.434265 
	C764.750000,677.391113 764.000000,677.347961 763.250000,677.304810 
	C762.500000,677.261658 761.750000,677.218506 761.000000,677.175354 
	C760.250000,677.132202 759.500000,677.089050 758.750000,677.045898 
	C755.500000,676.872070 752.250000,676.698242 749.000000,676.524414 
	C745.250000,676.394958 741.500000,676.265503 737.750000,676.136047 
	C737.000000,676.092896 736.250000,676.049744 735.500000,676.006592 
	C734.750000,675.963440 734.000000,675.920288 733.250000,675.877136 
	C732.500000,675.833984 731.750000,675.790833 731.000000,675.747681 
	C728.500000,675.611511 726.000000,675.475342 723.500000,675.339172 
	C720.750000,675.209717 718.000000,675.080261 715.250000,674.950806 
	C714.500000,674.907654 713.750000,674.864502 713.000000,674.821350 
	C711.500000,674.735352 710.000000,674.649353 708.500000,674.563354 
	C707.583313,674.501160 706.666687,674.438965 705.750000,674.376770 
	C705.000000,674.333618 704.250000,674.290466 703.500000,674.247314 
	C702.750000,674.204163 702.000000,674.161011 701.250000,674.117859 
	C695.000000,673.857788 688.750000,673.597717 682.500000,673.337646 
	C680.250000,673.262329 678.000000,673.187012 675.750000,673.111694 
	C673.500000,673.036377 671.250000,672.961060 669.000000,672.885742 
	C662.250000,672.649231 655.500000,672.412720 648.750000,672.176208 
	C647.250000,672.090210 645.750000,672.004211 644.250000,671.918213 
	C642.750000,671.832214 641.250000,671.746216 639.750000,671.660217 
	C636.750000,671.488220 633.750000,671.316223 630.750000,671.144226 
	C629.750000,671.087006 628.750000,671.029785 627.750000,670.972595 
	C626.750000,670.915405 625.750000,670.858215 624.750000,670.801025 
	C622.750000,670.686646 620.750000,670.572266 618.750000,670.457886 
	C615.000000,670.328430 611.250000,670.198975 607.500000,670.069519 
	C604.500000,669.959839 601.500000,669.850159 598.500000,669.740479 
	C597.000000,669.677979 595.500000,669.615479 594.000000,669.552979 
	C593.166687,669.521606 592.333313,669.490234 591.500000,669.458862 
	C589.750000,669.396057 588.000000,669.333252 586.250000,669.270447 
	C583.666687,669.186890 581.083313,669.103333 578.500000,669.019775 
	C577.666687,668.988403 576.833313,668.957031 576.000000,668.925659 
	C574.500000,668.863159 573.000000,668.800659 571.500000,668.738159 
	C568.500000,668.613159 565.500000,668.488159 562.500000,668.363159 
	C561.750000,668.320007 561.000000,668.276855 560.250000,668.233704 
	C555.750000,668.060059 551.250000,667.886414 546.750000,667.712769 
	C544.500000,667.612457 542.250000,667.512146 540.000000,667.411835 
	C539.666687,667.395813 539.333313,667.379791 539.000000,667.363770 
	C537.500000,667.301270 536.000000,667.238770 534.500000,667.176270 
	C533.000000,667.113770 531.500000,667.051270 530.000000,666.988770 
	C529.166687,666.957397 528.333313,666.926025 527.500000,666.894653 
	C525.250000,666.782227 523.000000,666.669800 520.750000,666.557373 
	C519.500000,666.489288 518.250000,666.421204 517.000000,666.353149 
	C516.250000,666.309998 515.500000,666.266846 514.750000,666.223694 
	C512.000000,666.094238 509.250000,665.964783 506.500000,665.835327 
	C504.500000,665.748810 502.500000,665.662292 500.500000,665.575745 
	C498.500000,665.489227 496.500000,665.402710 494.500000,665.316162 
	C490.500000,665.143005 486.500000,664.969849 482.500000,664.796692 
	C480.750000,664.710144 479.000000,664.623596 477.250000,664.537048 
	C476.500000,664.493896 475.750000,664.450745 475.000000,664.407593 
	C474.000000,664.350342 473.000000,664.293121 472.000000,664.235901 
	C470.500000,664.149902 469.000000,664.063904 467.500000,663.977905 
	C465.250000,663.934753 463.000000,663.891602 460.750000,663.848450 
	C458.500000,663.805298 456.250000,663.762146 454.000000,663.718994 
	C453.250000,663.675842 452.500000,663.632690 451.750000,663.589539 
	C451.000000,663.546387 450.250000,663.503235 449.500000,663.460083 
	C444.750000,663.287048 440.000000,663.114014 435.250000,662.940979 
	C430.750000,662.767334 426.250000,662.593689 421.750000,662.420044 
	C421.000000,662.376892 420.250000,662.333740 419.500000,662.290588 
	C418.750000,662.247437 418.000000,662.204285 417.250000,662.161133 
	C416.500000,662.117981 415.750000,662.074829 415.000000,662.031677 
	C414.250000,661.988525 413.500000,661.945374 412.750000,661.902222 
	C412.000000,661.859070 411.250000,661.815918 410.500000,661.772766 
	C409.750000,661.729614 409.000000,661.686462 408.250000,661.643311 
	C407.500000,661.600159 406.750000,661.557007 406.000000,661.513855 
	C403.500000,661.384460 401.000000,661.255066 398.500000,661.125671 
	C392.250000,660.867126 386.000000,660.608582 379.750000,660.350037 
	C376.500000,660.220642 373.250000,660.091248 370.000000,659.961853 
	C369.250000,659.918701 368.500000,659.875549 367.750000,659.832397 
	C367.000000,659.789246 366.250000,659.746094 365.500000,659.702942 
	C364.750000,659.659790 364.000000,659.616638 363.250000,659.573486 
	C362.500000,659.530334 361.750000,659.487183 361.000000,659.444031 
	C357.000000,659.271851 353.000000,659.099670 349.000000,658.927490 
	C347.250000,658.856323 345.500000,658.785156 343.750000,658.713989 
	C343.000000,658.670837 342.250000,658.627686 341.500000,658.584534 
	C339.750000,658.498169 338.000000,658.411804 336.250000,658.325439 
	C335.500000,658.282288 334.750000,658.239136 334.000000,658.195984 
	C333.250000,658.152832 332.500000,658.109680 331.750000,658.066528 
	C331.000000,658.023376 330.250000,657.980225 329.500000,657.937073 
	C326.000000,657.765839 322.500000,657.594604 319.000000,657.423370 
	C318.250000,657.380219 317.500000,657.337067 316.750000,657.293915 
	C316.000000,657.250763 315.250000,657.207611 314.500000,657.164459 
	C313.750000,657.121307 313.000000,657.078156 312.250000,657.035004 
	C311.500000,656.991852 310.750000,656.948700 310.000000,656.905548 
	C308.750000,656.834381 307.500000,656.763214 306.250000,656.692047 
	C304.500000,656.606262 302.750000,656.520447 301.000000,656.434662 
	C300.250000,656.391510 299.500000,656.348358 298.750000,656.305206 
	C295.250000,656.130859 291.750000,655.956512 288.250000,655.782166 
	C281.500000,655.523621 274.750000,655.265076 268.000000,655.006531 
	C264.000000,654.839722 260.000000,654.672913 256.000000,654.506104 
	C255.250000,654.462952 254.500000,654.419800 253.750000,654.376648 
	C253.000000,654.333496 252.250000,654.290344 251.500000,654.247192 
	C251.000000,654.214050 250.500000,654.180908 250.000000,654.147766 
	C249.000000,654.091095 248.000000,654.034424 247.000000,653.977753 
	C246.000000,653.921082 245.000000,653.864441 244.000000,653.807800 
	C243.000000,653.751160 242.000000,653.694519 241.000000,653.637878 
	C239.500000,653.552063 238.000000,653.466248 236.500000,653.380432 
	C234.500000,653.266113 232.500000,653.151825 230.500000,653.037537 
	C228.000000,652.901978 225.500000,652.766418 223.000000,652.630859 
	C222.250000,652.587708 221.500000,652.544556 220.750000,652.501404 
	C220.000000,652.458252 219.250000,652.415100 218.500000,652.371948 
	C217.750000,652.328796 217.000000,652.285645 216.250000,652.242493 
	C212.500000,652.070251 208.750000,651.898010 205.000000,651.725769 
	C204.250000,651.682617 203.500000,651.639465 202.750000,651.596313 
	C202.000000,651.553162 201.250000,651.510010 200.500000,651.466858 
	C199.750000,651.423706 199.000000,651.380554 198.250000,651.337402 
	C194.750000,651.165161 191.250000,650.992920 187.750000,650.820679 
	C187.000000,650.777527 186.250000,650.734375 185.500000,650.691223 
	C184.750000,650.648071 184.000000,650.604919 183.250000,650.561768 
	C182.500000,650.518616 181.750000,650.475464 181.000000,650.432312 
	C178.250000,650.302856 175.500000,650.173401 172.750000,650.043945 
	C172.000000,650.000793 171.250000,649.957642 170.500000,649.914490 
	C166.500000,649.742249 162.500000,649.570007 158.500000,649.397766 
	C155.500000,649.271423 152.500000,649.145081 149.500000,649.018738 
	C147.000000,648.907471 144.500000,648.796204 142.000000,648.684937 
	C140.750000,648.617798 139.500000,648.550659 138.250000,648.483521 
	C137.500000,648.440369 136.750000,648.397217 136.000000,648.354065 
	C133.500000,648.223145 131.000000,648.092224 128.500000,647.961304 
	C127.000000,647.871887 125.500000,647.782471 124.000000,647.693054 
	C123.250000,647.649902 122.500000,647.606750 121.750000,647.563599 
	C120.250000,647.477600 118.750000,647.391602 117.250000,647.305603 
	C116.500000,647.262451 115.750000,647.219299 115.000000,647.176147 
	C114.250000,647.132996 113.500000,647.089844 112.750000,647.046692 
	C112.000000,647.003540 111.250000,646.960388 110.500000,646.917236 
	C106.750000,646.744537 103.000000,646.571838 99.250000,646.399139 
	C98.500000,646.355988 97.750000,646.312836 97.000000,646.269684 
	C96.250000,646.226532 95.500000,646.183380 94.750000,646.140228 
	C94.000000,646.097076 93.250000,646.053925 92.500000,646.010773 
	C91.750000,645.967621 91.000000,645.924469 90.250000,645.881317 
	C88.000000,645.766083 85.750000,645.650818 83.500000,645.535583 
	C82.750000,645.492432 82.000000,645.449280 81.250000,645.406128 
	C75.500000,645.147095 69.750000,644.888062 64.000000,644.629028 
	C60.000000,644.486237 56.000000,644.343445 52.000000,644.200653 
	C51.250000,644.157501 50.500000,644.114349 49.750000,644.071198 
	C49.000000,644.028046 48.250000,643.984894 47.500000,643.941742 
	C44.500000,643.812805 41.500000,643.683838 38.500000,643.554871 
	C37.750000,643.511719 37.000000,643.468567 36.250000,643.425415 
	C35.500000,643.382263 34.750000,643.339111 34.000000,643.295959 
	C33.250000,643.252808 32.500000,643.209656 31.750000,643.166504 
	C31.000000,643.123352 30.250000,643.080200 29.500000,643.037048 
	C28.750000,642.993896 28.000000,642.950745 27.250000,642.907593 
	C26.500000,642.864441 25.750000,642.821289 25.000000,642.778137 
	C24.250000,642.734985 23.500000,642.691833 22.750000,642.648682 
	C22.000000,642.605530 21.250000,642.562378 20.500000,642.519226 
	C19.750000,642.476074 19.000000,642.432922 18.250000,642.389771 
	C17.500000,642.346619 16.750000,642.303467 16.000000,642.260315 
	C15.250000,642.217163 14.500000,642.174011 13.750000,642.130859 
	C13.000000,642.087708 12.250000,642.044556 11.500000,642.001404 
	C10.750000,641.958252 10.000000,641.915100 9.250000,641.871948 
	C8.500000,641.828796 7.750000,641.785645 7.000000,641.742493 
	C6.750000,641.721375 6.500000,641.700256 6.250000,641.679138 
	C6.000000,641.658020 5.750000,641.636902 5.500000,641.615784 
	C5.000000,641.573639 4.500000,641.531494 4.000000,641.489349 
	C3.750000,641.468231 3.500000,641.447113 3.250000,641.425995 
	C3.000000,641.404877 2.750000,641.383759 2.500000,641.362640 
	C2.250000,641.341522 2.000000,641.320404 1.750000,641.299286 
	C1.500000,641.278168 1.250000,641.257050 1.000000,641.235931 
	C1.000000,546.173645 1.000000,451.111328 1.000000,356.049011 
	C312.037201,356.049011 623.074402,356.046082 934.111572,356.043121 
	C726.753418,356.043121 519.395264,356.043121 312.037201,356.043121 
z"/>

<!-- Add more paths from the SVG file -->

</svg>