<?xml version="1.0" encoding="UTF-8" standalone="no"?>
<svg width="60" height="60" viewBox="0 0 60 60" fill="none" xmlns="http://www.w3.org/2000/svg">
  <defs>
    <linearGradient id="educationGradient" x1="0%" y1="0%" x2="100%" y2="100%">
      <stop offset="0%" stop-color="#5842FF"/>
      <stop offset="100%" stop-color="#6585FE"/>
    </linearGradient>
    
    <!-- Subtle glow filter -->
    <filter id="glow" x="-20%" y="-20%" width="140%" height="140%">
      <feGaussianBlur stdDeviation="2" result="blur"/>
      <feComposite in="SourceGraphic" in2="blur" operator="over"/>
    </filter>
  </defs>
  
  <!-- Circle backdrop with subtle pulsing -->
  <circle cx="30" cy="30" r="28" fill="url(#educationGradient)" opacity="0.08">
    <animate attributeName="opacity" values="0.08;0.12;0.08" dur="3s" repeatCount="indefinite"/>
  </circle>
  
  <!-- Abstract graduation cap base -->
  <path d="M11 26L30 16L49 26L30 36L11 26Z" fill="url(#educationGradient)" opacity="0.9" stroke="url(#educationGradient)" stroke-width="1"/>
  
  <!-- Digital connection points on cap -->
  <circle cx="30" cy="16" r="1.5" fill="#FFFFFF"/>
  <circle cx="11" cy="26" r="1.5" fill="#FFFFFF"/>
  <circle cx="49" cy="26" r="1.5" fill="#FFFFFF"/>
  <circle cx="30" cy="36" r="1.5" fill="#FFFFFF"/>
  
  <!-- Knowledge flowing to brain - thin connecting lines -->
  <line x1="30" y1="36" x2="30" y2="44" stroke="url(#educationGradient)" stroke-width="1" stroke-dasharray="2 1">
    <animate attributeName="stroke-dashoffset" values="0;-6" dur="2s" repeatCount="indefinite"/>
  </line>
  
  <!-- Abstract brain visualization -->
  <path d="M21 46C21 41.5817 25.0294 38 30 38C34.9706 38 39 41.5817 39 46C39 47.6569 36.7614 49 34 49H26C23.2386 49 21 47.6569 21 46Z" fill="url(#educationGradient)" opacity="0.8"/>
  
  <!-- Brain connection patterns -->
  <path d="M26 42C26 42 27 44 30 44C33 44 34 42 34 42" stroke="#FFFFFF" stroke-width="0.5" stroke-linecap="round"/>
  <path d="M26 45C26 45 27 47 30 47C33 47 34 45 34 45" stroke="#FFFFFF" stroke-width="0.5" stroke-linecap="round"/>
  
  <!-- Circuit patterns on brain -->
  <circle cx="27" cy="43" r="0.75" fill="#FFFFFF"/>
  <circle cx="33" cy="43" r="0.75" fill="#FFFFFF"/>
  <circle cx="30" cy="46" r="0.75" fill="#FFFFFF"/>
  
  <!-- Digital particles (minimalist dots) -->
  <circle cx="20" cy="28" r="0.75" fill="#FFFFFF" opacity="0.5">
    <animate attributeName="opacity" values="0.3;0.8;0.3" dur="3s" repeatCount="indefinite"/>
  </circle>
  <circle cx="40" cy="28" r="0.75" fill="#FFFFFF" opacity="0.5">
    <animate attributeName="opacity" values="0.3;0.8;0.3" dur="2.5s" repeatCount="indefinite"/>
  </circle>
  <circle cx="30" cy="25" r="0.75" fill="#FFFFFF" opacity="0.5">
    <animate attributeName="opacity" values="0.3;0.8;0.3" dur="2.8s" repeatCount="indefinite"/>
  </circle>
  
  <!-- Subtle pulsing effect for the icon as a whole -->
  <animate attributeName="opacity" values="0.98;1;0.98" dur="4s" repeatCount="indefinite"/>
</svg>