<svg version="1.1" id="Layer_1" xmlns="http://www.w3.org/2000/svg" xmlns:xlink="http://www.w3.org/1999/xlink" x="0px" y="0px"
	 width="100%" viewBox="0 0 1024 1024" enable-background="new 0 0 1024 1024" xml:space="preserve">
<path fill="#000000" opacity="1.000000" stroke="none" 
	d="
M215.060333,877.346436 
	C151.876190,874.579407 98.193253,829.412598 87.591278,767.675171 
	C80.106583,724.090393 89.848312,685.108765 120.358040,652.160828 
	C131.781693,639.824219 145.242981,630.054016 159.491760,621.319946 
	C203.592834,594.287231 239.745178,558.784424 270.441986,517.445007 
	C300.984924,476.312897 326.202301,432.185425 345.124756,384.526978 
	C359.838684,347.468231 369.953125,309.163361 376.825897,269.903351 
	C380.494049,248.949509 381.127106,227.609619 385.345184,206.776443 
	C391.554901,176.106781 408.164215,152.047623 433.517670,134.056671 
	C453.446259,119.915222 475.598083,111.094337 500.121552,109.619141 
	C554.221497,106.364792 597.506653,125.704407 626.676819,172.476852 
	C636.769775,188.660080 640.975647,206.917236 642.521057,226.004608 
	C645.516174,262.998260 652.219543,299.360657 662.971924,334.948395 
	C681.518250,396.331757 708.553223,453.527252 746.183533,505.620148 
	C768.187927,536.081482 792.486755,564.438354 820.934937,589.085449 
	C836.955750,602.965698 854.649658,614.510559 872.611633,625.685547 
	C905.784912,646.324463 928.120422,675.150574 937.073242,713.457703 
	C949.799683,767.910950 926.291382,824.994202 878.899231,855.789062 
	C852.836426,872.724304 824.371277,879.404663 793.350952,876.643127 
	C764.925781,874.112671 740.216431,862.711304 717.029785,847.014404 
	C689.594543,828.441162 662.213501,809.748474 631.855713,796.085449 
	C603.813721,783.464783 574.688660,774.708191 544.000793,771.185852 
	C529.554321,769.527649 515.098389,768.705505 500.660400,769.521057 
	C476.904968,770.862854 453.643646,775.299622 430.810822,782.186279 
	C391.453735,794.056824 356.485016,814.354309 322.946808,837.497498 
	C305.247009,849.711243 287.496857,861.816467 266.995636,869.072693 
	C250.345001,874.966125 233.233276,877.912415 215.060333,877.346436 
M546.488770,409.176178 
	C530.090881,404.816711 513.443115,403.094666 496.605225,405.512970 
	C459.112030,410.897919 428.258484,428.393494 405.281494,458.448212 
	C374.786621,498.336609 363.555481,543.708801 370.536285,593.303406 
	C373.354095,613.322388 382.267365,630.793091 398.101868,643.922729 
	C417.808533,660.263000 441.387421,668.379700 465.937836,673.449219 
	C488.810944,678.172424 512.040894,678.846619 535.401978,676.895142 
	C556.502075,675.132629 576.672974,670.243286 595.925659,661.533813 
	C612.057007,654.236267 625.436218,643.318237 635.547791,628.901733 
	C653.528320,603.266113 658.342468,574.316223 654.312134,543.862854 
	C651.168762,520.110962 643.814880,497.532867 631.658142,476.705841 
	C612.212646,443.391785 584.878479,419.937195 546.488770,409.176178 
z"/>
</svg>